M48
; DRILL file {KiCad 5.1.4-e60b266~84~ubuntu19.04.1} date jeu. 14 nov. 2019 23:13:07 CET
; FORMAT={-:-/ absolute / metric / decimal}
; #@! TF.CreationDate,2019-11-14T23:13:07+01:00
; #@! TF.GenerationSoftware,Kicad,Pcbnew,5.1.4-e60b266~84~ubuntu19.04.1
; #@! TF.FileFunction,Plated,1,2,PTH
FMAT,2
METRIC
T1C0.800
T2C0.900
T3C0.920
T4C1.000
T5C1.200
T6C1.300
T7C2.330
%
G90
G05
T1
X104.438Y-133.57
X106.038Y-132.195
X109.613Y-139.145
X111.238Y-137.795
X111.863Y-153.07
X116.863Y-153.07
X126.163Y-127.22
X131.163Y-127.22
X128.6Y-153.797
X128.6Y-156.297
X105.322Y-116.287
X110.202Y-116.287
X103.103Y-142.12
X103.103Y-149.74
X105.643Y-142.12
X105.643Y-149.74
X108.183Y-142.12
X108.183Y-149.74
X110.723Y-142.12
X110.723Y-149.74
X113.263Y-142.12
X113.263Y-149.74
X115.803Y-142.12
X115.803Y-149.74
X118.343Y-142.12
X118.343Y-149.74
X120.883Y-142.12
X120.883Y-149.74
X123.423Y-142.12
X123.423Y-149.74
X125.963Y-142.12
X125.963Y-149.74
X107.513Y-112.045
X110.013Y-112.045
X126.163Y-123.47
X131.163Y-123.47
X103.093Y-121.62
X103.093Y-129.24
X105.633Y-121.62
X105.633Y-129.24
X108.173Y-121.62
X108.173Y-129.24
X110.713Y-121.62
X110.713Y-129.24
X113.253Y-121.62
X113.253Y-129.24
X115.793Y-121.62
X115.793Y-129.24
X118.333Y-121.62
X118.333Y-129.24
X120.873Y-121.62
X120.873Y-129.24
X123.413Y-121.62
X123.413Y-129.24
X102.86Y-112.059
X105.36Y-112.059
X122.213Y-111.325
X122.213Y-118.945
X124.753Y-111.325
X124.753Y-118.945
X127.293Y-111.325
X127.293Y-118.945
X129.833Y-111.325
X129.833Y-118.945
X129.463Y-143.42
X129.463Y-148.42
T2
X105.213Y-158.655
X105.213Y-161.195
T3
X115.613Y-157.32
X115.613Y-159.32
X118.113Y-157.32
X118.113Y-159.32
T4
X115.613Y-112.67
X118.153Y-112.67
X127.513Y-135.77
X130.053Y-135.77
T5
X120.763Y-133.27
X120.763Y-138.35
X127.438Y-102.015
X127.438Y-107.095
X103.508Y-152.995
X108.588Y-152.995
X106.113Y-102.015
X106.113Y-107.095
X116.563Y-132.69
X116.563Y-137.77
T6
X111.788Y-105.37
X116.788Y-105.37
X121.788Y-105.37
T7
X110.843Y-162.03
X122.883Y-162.03
T0
M30
